{
    "asset" : {
        "generator" : "Khronos glTF Blender I/O v1.1.46",
        "version" : "2.0"
    },
    "scene" : 0,
    "scenes" : [
        {
            "name" : "Scene",
            "nodes" : [
                1,
                3,
                4
            ]
        }
    ],
    "nodes" : [
        {
            "name" : "WEB063G1156",
            "translation" : [
                0.019212663173675537,
                0,
                -0.4017125964164734
            ]
        },
        {
            "children" : [
                0
            ],
            "name" : "DST P600_WEB063G1156.IPT",
            "rotation" : [
                0.4999999701976776,
                0.5,
                -0.5000001192092896,
                0.49999988079071045
            ],
            "scale" : [
                0.02539999969303608,
                0.02539999969303608,
                0.02539999969303608
            ],
            "translation" : [
                0,
                0.010203499346971512,
                -0.0004880016203969717
            ]
        },
        {
            "mesh" : 0,
            "name" : "polySurface3"
        },
        {
            "children" : [
                2
            ],
            "name" : "polySurface1",
            "rotation" : [
                0.7071068286895752,
                0,
                0,
                0.7071067094802856
            ],
            "scale" : [
                0.009999999776482582,
                0.009999999776482582,
                0.009999999776482582
            ]
        },
        {
            "mesh" : 1,
            "name" : "Engraved",
            "rotation" : [
                0.6726593971252441,
                -0.21801234781742096,
                0.21801236271858215,
                0.6726593375205994
            ],
            "scale" : [
                0.02539999783039093,
                0.02539999783039093,
                0.02539999969303608
            ],
            "translation" : [
                0,
                0.0015654736198484898,
                0
            ]
        }
    ],
    "materials" : [
        {
            "doubleSided" : true,
            "emissiveFactor" : [
                0,
                0,
                0
            ],
            "name" : "Steel.001",
            "pbrMetallicRoughness" : {
                "baseColorFactor" : [
                    0.7454041242599487,
                    0.7681514024734497,
                    0.7681513428688049,
                    1
                ],
                "metallicFactor" : 1,
                "roughnessFactor" : 0.1639999896287918
            }
        },
        {
            "doubleSided" : true,
            "emissiveFactor" : [
                0,
                0,
                0
            ],
            "name" : "Black",
            "pbrMetallicRoughness" : {
                "baseColorFactor" : [
                    0.010021816939115524,
                    0.010021816939115524,
                    0.010021816939115524,
                    1
                ],
                "metallicFactor" : 0.5,
                "roughnessFactor" : 0.5
            }
        },
        {
            "doubleSided" : true,
            "emissiveFactor" : [
                0,
                0,
                0
            ],
            "name" : "phong8",
            "pbrMetallicRoughness" : {
                "baseColorFactor" : [
                    0.027209993451833725,
                    0.027209993451833725,
                    0.027209993451833725,
                    1
                ],
                "metallicFactor" : 0.5,
                "roughnessFactor" : 0.5
            }
        }
    ],
    "meshes" : [
        {
            "name" : "Mesh",
            "primitives" : [
                {
                    "attributes" : {
                        "POSITION" : 0,
                        "NORMAL" : 1,
                        "TEXCOORD_0" : 2
                    },
                    "indices" : 3,
                    "material" : 0
                },
                {
                    "attributes" : {
                        "POSITION" : 4,
                        "NORMAL" : 5,
                        "TEXCOORD_0" : 6
                    },
                    "indices" : 7,
                    "material" : 1
                },
                {
                    "attributes" : {
                        "POSITION" : 8,
                        "NORMAL" : 9,
                        "TEXCOORD_0" : 10
                    },
                    "indices" : 11,
                    "material" : 0
                },
                {
                    "attributes" : {
                        "POSITION" : 12,
                        "NORMAL" : 13,
                        "TEXCOORD_0" : 14
                    },
                    "indices" : 15,
                    "material" : 1
                },
                {
                    "attributes" : {
                        "POSITION" : 16,
                        "NORMAL" : 17,
                        "TEXCOORD_0" : 18
                    },
                    "indices" : 19,
                    "material" : 0
                },
                {
                    "attributes" : {
                        "POSITION" : 20,
                        "NORMAL" : 21,
                        "TEXCOORD_0" : 22
                    },
                    "indices" : 23,
                    "material" : 0
                }
            ]
        },
        {
            "name" : "Mesh.001",
            "primitives" : [
                {
                    "attributes" : {
                        "POSITION" : 24,
                        "NORMAL" : 25,
                        "TEXCOORD_0" : 26
                    },
                    "indices" : 27,
                    "material" : 0
                },
                {
                    "attributes" : {
                        "POSITION" : 28,
                        "NORMAL" : 29,
                        "TEXCOORD_0" : 30
                    },
                    "indices" : 31,
                    "material" : 2
                }
            ]
        }
    ],
    "accessors" : [
        {
            "bufferView" : 0,
            "componentType" : 5126,
            "count" : 94,
            "max" : [
                1.1998167037963867,
                1.1932438611984253,
                1.5410999059677124
            ],
            "min" : [
                -1.1998167037963867,
                -1.1932438611984253,
                -1.3189001083374023
            ],
            "type" : "VEC3"
        },
        {
            "bufferView" : 1,
            "componentType" : 5126,
            "count" : 94,
            "type" : "VEC3"
        },
        {
            "bufferView" : 2,
            "componentType" : 5126,
            "count" : 94,
            "type" : "VEC2"
        },
        {
            "bufferView" : 3,
            "componentType" : 5123,
            "count" : 270,
            "type" : "SCALAR"
        },
        {
            "bufferView" : 4,
            "componentType" : 5126,
            "count" : 7560,
            "max" : [
                1.100000023841858,
                1.100000023841858,
                -0.9265097975730896
            ],
            "min" : [
                -1.1199979782104492,
                -1.100000023841858,
                -3.218899965286255
            ],
            "type" : "VEC3"
        },
        {
            "bufferView" : 5,
            "componentType" : 5126,
            "count" : 7560,
            "type" : "VEC3"
        },
        {
            "bufferView" : 6,
            "componentType" : 5126,
            "count" : 7560,
            "type" : "VEC2"
        },
        {
            "bufferView" : 7,
            "componentType" : 5123,
            "count" : 27348,
            "type" : "SCALAR"
        },
        {
            "bufferView" : 8,
            "componentType" : 5126,
            "count" : 132,
            "max" : [
                0.03999999910593033,
                0.2499999701976776,
                -1.4688998460769653
            ],
            "min" : [
                -0.41499999165534973,
                -0.2499999701976776,
                -2.1689000129699707
            ],
            "type" : "VEC3"
        },
        {
            "bufferView" : 9,
            "componentType" : 5126,
            "count" : 132,
            "type" : "VEC3"
        },
        {
            "bufferView" : 10,
            "componentType" : 5126,
            "count" : 132,
            "type" : "VEC2"
        },
        {
            "bufferView" : 11,
            "componentType" : 5123,
            "count" : 234,
            "type" : "SCALAR"
        },
        {
            "bufferView" : 12,
            "componentType" : 5126,
            "count" : 371,
            "max" : [
                0.8020635843276978,
                0.8020635843276978,
                1.6594287157058716
            ],
            "min" : [
                -0.8020635843276978,
                -0.8020635843276978,
                1.441099762916565
            ],
            "type" : "VEC3"
        },
        {
            "bufferView" : 13,
            "componentType" : 5126,
            "count" : 371,
            "type" : "VEC3"
        },
        {
            "bufferView" : 14,
            "componentType" : 5126,
            "count" : 371,
            "type" : "VEC2"
        },
        {
            "bufferView" : 15,
            "componentType" : 5123,
            "count" : 2004,
            "type" : "SCALAR"
        },
        {
            "bufferView" : 16,
            "componentType" : 5126,
            "count" : 5069,
            "max" : [
                1.3499997854232788,
                1.4740276336669922,
                2.541100025177002
            ],
            "min" : [
                -1.3499997854232788,
                -1.4740276336669922,
                -0.9265097975730896
            ],
            "type" : "VEC3"
        },
        {
            "bufferView" : 17,
            "componentType" : 5126,
            "count" : 5069,
            "type" : "VEC3"
        },
        {
            "bufferView" : 18,
            "componentType" : 5126,
            "count" : 5069,
            "type" : "VEC2"
        },
        {
            "bufferView" : 19,
            "componentType" : 5123,
            "count" : 20733,
            "type" : "SCALAR"
        },
        {
            "bufferView" : 20,
            "componentType" : 5126,
            "count" : 443,
            "max" : [
                1.328292965888977,
                1.3299998044967651,
                0.6910999417304993
            ],
            "min" : [
                -1.328292965888977,
                -1.3231762647628784,
                0.530819833278656
            ],
            "type" : "VEC3"
        },
        {
            "bufferView" : 21,
            "componentType" : 5126,
            "count" : 443,
            "type" : "VEC3"
        },
        {
            "bufferView" : 22,
            "componentType" : 5126,
            "count" : 443,
            "type" : "VEC2"
        },
        {
            "bufferView" : 23,
            "componentType" : 5123,
            "count" : 1665,
            "type" : "SCALAR"
        },
        {
            "bufferView" : 24,
            "componentType" : 5126,
            "count" : 4382,
            "max" : [
                0.5,
                0.5,
                0.2708367705345154
            ],
            "min" : [
                -0.5,
                -0.5,
                -0.2708367705345154
            ],
            "type" : "VEC3"
        },
        {
            "bufferView" : 25,
            "componentType" : 5126,
            "count" : 4382,
            "type" : "VEC3"
        },
        {
            "bufferView" : 26,
            "componentType" : 5126,
            "count" : 4382,
            "type" : "VEC2"
        },
        {
            "bufferView" : 27,
            "componentType" : 5123,
            "count" : 13629,
            "type" : "SCALAR"
        },
        {
            "bufferView" : 28,
            "componentType" : 5126,
            "count" : 2746,
            "max" : [
                0.4429411292076111,
                0.49520745873451233,
                0.11131203919649124
            ],
            "min" : [
                0.033987872302532196,
                0.2187132090330124,
                -0.09193534404039383
            ],
            "type" : "VEC3"
        },
        {
            "bufferView" : 29,
            "componentType" : 5126,
            "count" : 2746,
            "type" : "VEC3"
        },
        {
            "bufferView" : 30,
            "componentType" : 5126,
            "count" : 2746,
            "type" : "VEC2"
        },
        {
            "bufferView" : 31,
            "componentType" : 5123,
            "count" : 5589,
            "type" : "SCALAR"
        }
    ],
    "bufferViews" : [
        {
            "buffer" : 0,
            "byteLength" : 1128,
            "byteOffset" : 0
        },
        {
            "buffer" : 0,
            "byteLength" : 1128,
            "byteOffset" : 1128
        },
        {
            "buffer" : 0,
            "byteLength" : 752,
            "byteOffset" : 2256
        },
        {
            "buffer" : 0,
            "byteLength" : 540,
            "byteOffset" : 3008
        },
        {
            "buffer" : 0,
            "byteLength" : 90720,
            "byteOffset" : 3548
        },
        {
            "buffer" : 0,
            "byteLength" : 90720,
            "byteOffset" : 94268
        },
        {
            "buffer" : 0,
            "byteLength" : 60480,
            "byteOffset" : 184988
        },
        {
            "buffer" : 0,
            "byteLength" : 54696,
            "byteOffset" : 245468
        },
        {
            "buffer" : 0,
            "byteLength" : 1584,
            "byteOffset" : 300164
        },
        {
            "buffer" : 0,
            "byteLength" : 1584,
            "byteOffset" : 301748
        },
        {
            "buffer" : 0,
            "byteLength" : 1056,
            "byteOffset" : 303332
        },
        {
            "buffer" : 0,
            "byteLength" : 468,
            "byteOffset" : 304388
        },
        {
            "buffer" : 0,
            "byteLength" : 4452,
            "byteOffset" : 304856
        },
        {
            "buffer" : 0,
            "byteLength" : 4452,
            "byteOffset" : 309308
        },
        {
            "buffer" : 0,
            "byteLength" : 2968,
            "byteOffset" : 313760
        },
        {
            "buffer" : 0,
            "byteLength" : 4008,
            "byteOffset" : 316728
        },
        {
            "buffer" : 0,
            "byteLength" : 60828,
            "byteOffset" : 320736
        },
        {
            "buffer" : 0,
            "byteLength" : 60828,
            "byteOffset" : 381564
        },
        {
            "buffer" : 0,
            "byteLength" : 40552,
            "byteOffset" : 442392
        },
        {
            "buffer" : 0,
            "byteLength" : 41466,
            "byteOffset" : 482944
        },
        {
            "buffer" : 0,
            "byteLength" : 5316,
            "byteOffset" : 524412
        },
        {
            "buffer" : 0,
            "byteLength" : 5316,
            "byteOffset" : 529728
        },
        {
            "buffer" : 0,
            "byteLength" : 3544,
            "byteOffset" : 535044
        },
        {
            "buffer" : 0,
            "byteLength" : 3330,
            "byteOffset" : 538588
        },
        {
            "buffer" : 0,
            "byteLength" : 52584,
            "byteOffset" : 541920
        },
        {
            "buffer" : 0,
            "byteLength" : 52584,
            "byteOffset" : 594504
        },
        {
            "buffer" : 0,
            "byteLength" : 35056,
            "byteOffset" : 647088
        },
        {
            "buffer" : 0,
            "byteLength" : 27258,
            "byteOffset" : 682144
        },
        {
            "buffer" : 0,
            "byteLength" : 32952,
            "byteOffset" : 709404
        },
        {
            "buffer" : 0,
            "byteLength" : 32952,
            "byteOffset" : 742356
        },
        {
            "buffer" : 0,
            "byteLength" : 21968,
            "byteOffset" : 775308
        },
        {
            "buffer" : 0,
            "byteLength" : 11178,
            "byteOffset" : 797276
        }
    ],
    "buffers" : [
        {
            "byteLength" : 808456,
            "uri" : "data:application/octet-stream;base64,"
        }
    ]
}
