{
    "asset" : {
        "generator" : "Khronos glTF Blender I/O v1.1.46",
        "version" : "2.0"
    },
    "scene" : 0,
    "scenes" : [
        {
            "name" : "Scene",
            "nodes" : [
                2
            ]
        }
    ],
    "nodes" : [
        {
            "mesh" : 0,
            "name" : "Solid1"
        },
        {
            "children" : [
                0
            ],
            "name" : "WEB063G1156",
            "translation" : [
                0.019212663173675537,
                0,
                -0.4017125964164734
            ]
        },
        {
            "children" : [
                1
            ],
            "name" : "DST P600_WEB063G1156.IPT",
            "rotation" : [
                0.4999999701976776,
                0.5,
                -0.5000001192092896,
                0.49999988079071045
            ],
            "scale" : [
                0.02539999969303608,
                0.02539999969303608,
                0.02539999969303608
            ],
            "translation" : [
                0,
                0.010203499346971512,
                -0.0004880016203969717
            ]
        }
    ],
    "materials" : [
        {
            "doubleSided" : true,
            "emissiveFactor" : [
                0,
                0,
                0
            ],
            "name" : "Steel.001",
            "pbrMetallicRoughness" : {
                "baseColorFactor" : [
                    0.7454041242599487,
                    0.7681514024734497,
                    0.7681513428688049,
                    1
                ],
                "metallicFactor" : 1,
                "roughnessFactor" : 0.1639999896287918
            }
        },
        {
            "doubleSided" : true,
            "emissiveFactor" : [
                0,
                0,
                0
            ],
            "name" : "Black",
            "pbrMetallicRoughness" : {
                "baseColorFactor" : [
                    0.011087627150118351,
                    0.011087627150118351,
                    0.011087627150118351,
                    1
                ],
                "metallicFactor" : 0.5,
                "roughnessFactor" : 0.75
            }
        },
        {
            "doubleSided" : true,
            "emissiveFactor" : [
                0,
                0,
                0
            ],
            "name" : "phong3",
            "pbrMetallicRoughness" : {
                "baseColorTexture" : {
                    "index" : 0,
                    "texCoord" : 0
                },
                "metallicFactor" : 0.30000001192092896,
                "roughnessFactor" : 0.5
            }
        },
        {
            "doubleSided" : true,
            "emissiveFactor" : [
                0,
                0,
                0
            ],
            "name" : "Steel.002",
            "pbrMetallicRoughness" : {
                "baseColorFactor" : [
                    0.22006820142269135,
                    0.22658386826515198,
                    0.22658386826515198,
                    1
                ],
                "metallicFactor" : 1,
                "roughnessFactor" : 0.1639999896287918
            }
        }
    ],
    "meshes" : [
        {
            "name" : "Mesh",
            "primitives" : [
                {
                    "attributes" : {
                        "POSITION" : 0,
                        "NORMAL" : 1,
                        "TEXCOORD_0" : 2
                    },
                    "indices" : 3,
                    "material" : 0
                },
                {
                    "attributes" : {
                        "POSITION" : 4,
                        "NORMAL" : 5,
                        "TEXCOORD_0" : 6
                    },
                    "indices" : 7,
                    "material" : 1
                },
                {
                    "attributes" : {
                        "POSITION" : 8,
                        "NORMAL" : 9,
                        "TEXCOORD_0" : 10
                    },
                    "indices" : 11,
                    "material" : 2
                },
                {
                    "attributes" : {
                        "POSITION" : 12,
                        "NORMAL" : 13,
                        "TEXCOORD_0" : 14
                    },
                    "indices" : 15,
                    "material" : 3
                }
            ]
        }
    ],
    "textures" : [
        {
            "source" : 0
        }
    ],
    "images" : [
        {
            "bufferView" : 12,
            "mimeType" : "image/png",
            "name" : "PL04 MBS Label_Corrected"
        }
    ],
    "accessors" : [
        {
            "bufferView" : 0,
            "componentType" : 5126,
            "count" : 12466,
            "max" : [
                0.4330708682537079,
                0.48215988278388977,
                0.7677165269851685
            ],
            "min" : [
                -0.4330708682537079,
                -0.48215988278388977,
                -1.0614173412322998
            ],
            "type" : "VEC3"
        },
        {
            "bufferView" : 1,
            "componentType" : 5126,
            "count" : 12466,
            "type" : "VEC3"
        },
        {
            "bufferView" : 2,
            "componentType" : 5126,
            "count" : 12466,
            "type" : "VEC2"
        },
        {
            "bufferView" : 3,
            "componentType" : 5123,
            "count" : 46713,
            "type" : "SCALAR"
        },
        {
            "bufferView" : 4,
            "componentType" : 5126,
            "count" : 5893,
            "max" : [
                0.47149619460105896,
                0.43126562237739563,
                -0.665236234664917
            ],
            "min" : [
                -0.4067099094390869,
                -0.4313489496707916,
                -1.5711417198181152
            ],
            "type" : "VEC3"
        },
        {
            "bufferView" : 5,
            "componentType" : 5126,
            "count" : 5893,
            "type" : "VEC3"
        },
        {
            "bufferView" : 6,
            "componentType" : 5126,
            "count" : 5893,
            "type" : "VEC2"
        },
        {
            "bufferView" : 7,
            "componentType" : 5123,
            "count" : 18309,
            "type" : "SCALAR"
        },
        {
            "bufferView" : 8,
            "componentType" : 5126,
            "count" : 184,
            "max" : [
                0.3804367184638977,
                0.380424439907074,
                -0.06636053323745728
            ],
            "min" : [
                -0.383933961391449,
                -0.3548540472984314,
                -0.5683606863021851
            ],
            "type" : "VEC3"
        },
        {
            "bufferView" : 9,
            "componentType" : 5126,
            "count" : 184,
            "type" : "VEC3"
        },
        {
            "bufferView" : 10,
            "componentType" : 5126,
            "count" : 184,
            "type" : "VEC2"
        },
        {
            "bufferView" : 11,
            "componentType" : 5123,
            "count" : 528,
            "type" : "SCALAR"
        },
        {
            "bufferView" : 13,
            "componentType" : 5126,
            "count" : 8,
            "max" : [
                0.3804367184638977,
                -0.0017608734779059887,
                -0.06636053323745728
            ],
            "min" : [
                -0.14800475537776947,
                -0.3548540472984314,
                -0.5683606863021851
            ],
            "type" : "VEC3"
        },
        {
            "bufferView" : 14,
            "componentType" : 5126,
            "count" : 8,
            "type" : "VEC3"
        },
        {
            "bufferView" : 15,
            "componentType" : 5126,
            "count" : 8,
            "type" : "VEC2"
        },
        {
            "bufferView" : 16,
            "componentType" : 5123,
            "count" : 12,
            "type" : "SCALAR"
        }
    ],
    "bufferViews" : [
        {
            "buffer" : 0,
            "byteLength" : 149592,
            "byteOffset" : 0
        },
        {
            "buffer" : 0,
            "byteLength" : 149592,
            "byteOffset" : 149592
        },
        {
            "buffer" : 0,
            "byteLength" : 99728,
            "byteOffset" : 299184
        },
        {
            "buffer" : 0,
            "byteLength" : 93426,
            "byteOffset" : 398912
        },
        {
            "buffer" : 0,
            "byteLength" : 70716,
            "byteOffset" : 492340
        },
        {
            "buffer" : 0,
            "byteLength" : 70716,
            "byteOffset" : 563056
        },
        {
            "buffer" : 0,
            "byteLength" : 47144,
            "byteOffset" : 633772
        },
        {
            "buffer" : 0,
            "byteLength" : 36618,
            "byteOffset" : 680916
        },
        {
            "buffer" : 0,
            "byteLength" : 2208,
            "byteOffset" : 717536
        },
        {
            "buffer" : 0,
            "byteLength" : 2208,
            "byteOffset" : 719744
        },
        {
            "buffer" : 0,
            "byteLength" : 1472,
            "byteOffset" : 721952
        },
        {
            "buffer" : 0,
            "byteLength" : 1056,
            "byteOffset" : 723424
        },
        {
            "buffer" : 0,
            "byteLength" : 99937,
            "byteOffset" : 724480
        },
        {
            "buffer" : 0,
            "byteLength" : 96,
            "byteOffset" : 824420
        },
        {
            "buffer" : 0,
            "byteLength" : 96,
            "byteOffset" : 824516
        },
        {
            "buffer" : 0,
            "byteLength" : 64,
            "byteOffset" : 824612
        },
        {
            "buffer" : 0,
            "byteLength" : 24,
            "byteOffset" : 824676
        }
    ],
    "buffers" : [
        {
            "byteLength" : 824700,
            "uri" : "data:application/octet-stream;base64,"
        }
    ]
}
