{
    "asset" : {
        "generator" : "Khronos glTF Blender I/O v1.1.46",
        "version" : "2.0"
    },
    "extensionsUsed" : [
        "KHR_lights_punctual"
    ],
    "extensionsRequired" : [
        "KHR_lights_punctual"
    ],
    "extensions" : {
        "KHR_lights_punctual" : {
            "lights" : [
                {
                    "color" : [
                        1,
                        1,
                        1
                    ],
                    "intensity" : 7,
                    "type" : "point",
                    "name" : "Point"
                },
                {
                    "color" : [
                        1,
                        1,
                        1
                    ],
                    "intensity" : 3,
                    "type" : "point",
                    "name" : "Point.001"
                },
                {
                    "color" : [
                        1,
                        1,
                        1
                    ],
                    "intensity" : 3,
                    "type" : "point",
                    "name" : "Point.002"
                }
            ]
        }
    },
    "scene" : 0,
    "scenes" : [
        {
            "name" : "Scene",
            "nodes" : [
                1,
                2,
                4,
                6,
                8
            ]
        }
    ],
    "nodes" : [
        {
            "mesh" : 0,
            "name" : "Cylinder001",
            "rotation" : [
                -0.7071068286895752,
                0,
                0,
                0.7071067094802856
            ],
            "scale" : [
                2.510241985321045,
                2.510241985321045,
                2.510241985321045
            ],
            "translation" : [
                -0.004472761880606413,
                9.169850090984255e-05,
                -2.4678871631622314
            ]
        },
        {
            "children" : [
                0
            ],
            "name" : "DST_P40I",
            "rotation" : [
                0.7071068286895752,
                0,
                0,
                0.7071067094802856
            ],
            "scale" : [
                0.10000000149011612,
                0.10000000149011612,
                0.10000000149011612
            ]
        },
        {
            "mesh" : 1,
            "name" : "polySurface1",
            "rotation" : [
                0.7071068286895752,
                0,
                0,
                0.7071067094802856
            ],
            "scale" : [
                0.10000000149011612,
                0.10000000149011612,
                0.10000000149011612
            ]
        },
        {
            "extensions" : {
                "KHR_lights_punctual" : {
                    "light" : 0
                }
            },
            "name" : "Point_Orientation",
            "rotation" : [
                -0.7071067690849304,
                0,
                0,
                0.7071067690849304
            ]
        },
        {
            "children" : [
                3
            ],
            "name" : "Point",
            "translation" : [
                -0.05355091392993927,
                0.8205212354660034,
                -0.4385915696620941
            ]
        },
        {
            "extensions" : {
                "KHR_lights_punctual" : {
                    "light" : 1
                }
            },
            "name" : "Point.001_Orientation",
            "rotation" : [
                -0.7071067690849304,
                0,
                0,
                0.7071067690849304
            ]
        },
        {
            "children" : [
                5
            ],
            "name" : "Point.001",
            "translation" : [
                -0.09454509615898132,
                0.9553976058959961,
                0.4807010889053345
            ]
        },
        {
            "extensions" : {
                "KHR_lights_punctual" : {
                    "light" : 2
                }
            },
            "name" : "Point.002_Orientation",
            "rotation" : [
                -0.7071067690849304,
                0,
                0,
                0.7071067690849304
            ]
        },
        {
            "children" : [
                7
            ],
            "name" : "Point.002",
            "translation" : [
                -0.47075194120407104,
                0.8205212354660034,
                -0.05350843071937561
            ]
        }
    ],
    "materials" : [
        {
            "alphaMode" : "BLEND",
            "doubleSided" : true,
            "emissiveFactor" : [
                0,
                0,
                0
            ],
            "name" : "phong7",
            "pbrMetallicRoughness" : {
                "baseColorTexture" : {
                    "index" : 0,
                    "texCoord" : 0
                },
                "metallicFactor" : 0.5,
                "roughnessFactor" : 0.5
            }
        },
        {
            "doubleSided" : true,
            "emissiveFactor" : [
                0,
                0,
                0
            ],
            "name" : "phong2",
            "pbrMetallicRoughness" : {
                "baseColorFactor" : [
                    0.014669571071863174,
                    0.014669571071863174,
                    0.014669571071863174,
                    1
                ],
                "metallicFactor" : 0.6499999761581421,
                "roughnessFactor" : 0.800000011920929
            }
        },
        {
            "doubleSided" : true,
            "emissiveFactor" : [
                0,
                0,
                0
            ],
            "name" : "Steel.001",
            "pbrMetallicRoughness" : {
                "baseColorFactor" : [
                    0.7454041242599487,
                    0.7681514024734497,
                    0.7681513428688049,
                    1
                ],
                "metallicFactor" : 1,
                "roughnessFactor" : 0.1639999896287918
            }
        },
        {
            "doubleSided" : true,
            "emissiveFactor" : [
                0,
                0,
                0
            ],
            "name" : "phong4",
            "pbrMetallicRoughness" : {
                "baseColorFactor" : [
                    0.8713674545288086,
                    0,
                    0.004252027254551649,
                    1
                ],
                "metallicFactor" : 0.20499999821186066,
                "roughnessFactor" : 0.800000011920929
            }
        },
        {
            "doubleSided" : true,
            "emissiveFactor" : [
                0,
                0,
                0
            ],
            "name" : "phong5",
            "pbrMetallicRoughness" : {
                "baseColorFactor" : [
                    0,
                    0,
                    0,
                    1
                ],
                "metallicFactor" : 0.5,
                "roughnessFactor" : 0.8999999761581421
            }
        }
    ],
    "meshes" : [
        {
            "name" : "Mesh.001",
            "primitives" : [
                {
                    "attributes" : {
                        "POSITION" : 0,
                        "NORMAL" : 1,
                        "TEXCOORD_0" : 2
                    },
                    "indices" : 3,
                    "material" : 0
                }
            ]
        },
        {
            "name" : "Mesh.003",
            "primitives" : [
                {
                    "attributes" : {
                        "POSITION" : 4,
                        "NORMAL" : 5,
                        "TEXCOORD_0" : 6
                    },
                    "indices" : 7,
                    "material" : 1
                },
                {
                    "attributes" : {
                        "POSITION" : 8,
                        "NORMAL" : 9,
                        "TEXCOORD_0" : 10
                    },
                    "indices" : 11,
                    "material" : 2
                },
                {
                    "attributes" : {
                        "POSITION" : 12,
                        "NORMAL" : 13,
                        "TEXCOORD_0" : 14
                    },
                    "indices" : 15,
                    "material" : 3
                },
                {
                    "attributes" : {
                        "POSITION" : 16,
                        "NORMAL" : 17,
                        "TEXCOORD_0" : 18
                    },
                    "indices" : 19,
                    "material" : 4
                },
                {
                    "attributes" : {
                        "POSITION" : 20,
                        "NORMAL" : 21,
                        "TEXCOORD_0" : 22
                    },
                    "indices" : 23,
                    "material" : 2
                },
                {
                    "attributes" : {
                        "POSITION" : 24,
                        "NORMAL" : 25,
                        "TEXCOORD_0" : 26
                    },
                    "indices" : 27,
                    "material" : 2
                },
                {
                    "attributes" : {
                        "POSITION" : 28,
                        "NORMAL" : 29,
                        "TEXCOORD_0" : 30
                    },
                    "indices" : 31,
                    "material" : 2
                }
            ]
        }
    ],
    "textures" : [
        {
            "source" : 0
        }
    ],
    "images" : [
        {
            "bufferView" : 4,
            "mimeType" : "image/png",
            "name" : "P40I_label1"
        }
    ],
    "accessors" : [
        {
            "bufferView" : 0,
            "componentType" : 5126,
            "count" : 264,
            "max" : [
                0.5435367226600647,
                0.3953299820423126,
                0.5435367226600647
            ],
            "min" : [
                -0.5435367226600647,
                0,
                -0.5435367226600647
            ],
            "type" : "VEC3"
        },
        {
            "bufferView" : 1,
            "componentType" : 5126,
            "count" : 264,
            "type" : "VEC3"
        },
        {
            "bufferView" : 2,
            "componentType" : 5126,
            "count" : 264,
            "type" : "VEC2"
        },
        {
            "bufferView" : 3,
            "componentType" : 5123,
            "count" : 768,
            "type" : "SCALAR"
        },
        {
            "bufferView" : 5,
            "componentType" : 5126,
            "count" : 6392,
            "max" : [
                3.880000352859497,
                1.3600000143051147,
                -4.920000076293945
            ],
            "min" : [
                -1.3849997520446777,
                -1.350000023841858,
                -8.390000343322754
            ],
            "type" : "VEC3"
        },
        {
            "bufferView" : 6,
            "componentType" : 5126,
            "count" : 6392,
            "type" : "VEC3"
        },
        {
            "bufferView" : 7,
            "componentType" : 5126,
            "count" : 6392,
            "type" : "VEC2"
        },
        {
            "bufferView" : 8,
            "componentType" : 5123,
            "count" : 17538,
            "type" : "SCALAR"
        },
        {
            "bufferView" : 9,
            "componentType" : 5126,
            "count" : 813,
            "max" : [
                2.630000352859497,
                1.3299999237060547,
                -6.697596073150635
            ],
            "min" : [
                -0.3674996495246887,
                -1.2050000429153442,
                -8.40000057220459
            ],
            "type" : "VEC3"
        },
        {
            "bufferView" : 10,
            "componentType" : 5126,
            "count" : 813,
            "type" : "VEC3"
        },
        {
            "bufferView" : 11,
            "componentType" : 5126,
            "count" : 813,
            "type" : "VEC2"
        },
        {
            "bufferView" : 12,
            "componentType" : 5123,
            "count" : 3000,
            "type" : "SCALAR"
        },
        {
            "bufferView" : 13,
            "componentType" : 5126,
            "count" : 64,
            "max" : [
                1.3500001430511475,
                1.350000023841858,
                -4.769999980926514
            ],
            "min" : [
                -1.3499997854232788,
                -1.350000023841858,
                -4.920000076293945
            ],
            "type" : "VEC3"
        },
        {
            "bufferView" : 14,
            "componentType" : 5126,
            "count" : 64,
            "type" : "VEC3"
        },
        {
            "bufferView" : 15,
            "componentType" : 5126,
            "count" : 64,
            "type" : "VEC2"
        },
        {
            "bufferView" : 16,
            "componentType" : 5123,
            "count" : 144,
            "type" : "SCALAR"
        },
        {
            "bufferView" : 17,
            "componentType" : 5126,
            "count" : 8856,
            "max" : [
                1.8708858489990234,
                1.875,
                -1.1699999570846558
            ],
            "min" : [
                -1.8708854913711548,
                -1.875,
                -4.769999980926514
            ],
            "type" : "VEC3"
        },
        {
            "bufferView" : 18,
            "componentType" : 5126,
            "count" : 8856,
            "type" : "VEC3"
        },
        {
            "bufferView" : 19,
            "componentType" : 5126,
            "count" : 8856,
            "type" : "VEC2"
        },
        {
            "bufferView" : 20,
            "componentType" : 5123,
            "count" : 33639,
            "type" : "SCALAR"
        },
        {
            "bufferView" : 21,
            "componentType" : 5126,
            "count" : 939,
            "max" : [
                1.350000023841858,
                1.4740276336669922,
                2.6166310007624816e-08
            ],
            "min" : [
                -1.3499999046325684,
                -1.4740276336669922,
                -3.7850000858306885
            ],
            "type" : "VEC3"
        },
        {
            "bufferView" : 22,
            "componentType" : 5126,
            "count" : 939,
            "type" : "VEC3"
        },
        {
            "bufferView" : 23,
            "componentType" : 5126,
            "count" : 939,
            "type" : "VEC2"
        },
        {
            "bufferView" : 24,
            "componentType" : 5123,
            "count" : 2907,
            "type" : "SCALAR"
        },
        {
            "bufferView" : 25,
            "componentType" : 5126,
            "count" : 18,
            "max" : [
                0.3446827530860901,
                0.3499999940395355,
                -1.309999942779541
            ],
            "min" : [
                -0.34468263387680054,
                -0.3499999940395355,
                -1.309999942779541
            ],
            "type" : "VEC3"
        },
        {
            "bufferView" : 26,
            "componentType" : 5126,
            "count" : 18,
            "type" : "VEC3"
        },
        {
            "bufferView" : 27,
            "componentType" : 5126,
            "count" : 18,
            "type" : "VEC2"
        },
        {
            "bufferView" : 28,
            "componentType" : 5123,
            "count" : 48,
            "type" : "SCALAR"
        },
        {
            "bufferView" : 29,
            "componentType" : 5126,
            "count" : 3529,
            "max" : [
                0.7549006342887878,
                0.7549005746841431,
                -0.03915131092071533
            ],
            "min" : [
                -0.7549005746841431,
                -0.7549005746841431,
                -0.7987845540046692
            ],
            "type" : "VEC3"
        },
        {
            "bufferView" : 30,
            "componentType" : 5126,
            "count" : 3529,
            "type" : "VEC3"
        },
        {
            "bufferView" : 31,
            "componentType" : 5126,
            "count" : 3529,
            "type" : "VEC2"
        },
        {
            "bufferView" : 32,
            "componentType" : 5123,
            "count" : 15759,
            "type" : "SCALAR"
        }
    ],
    "bufferViews" : [
        {
            "buffer" : 0,
            "byteLength" : 3168,
            "byteOffset" : 0
        },
        {
            "buffer" : 0,
            "byteLength" : 3168,
            "byteOffset" : 3168
        },
        {
            "buffer" : 0,
            "byteLength" : 2112,
            "byteOffset" : 6336
        },
        {
            "buffer" : 0,
            "byteLength" : 1536,
            "byteOffset" : 8448
        },
        {
            "buffer" : 0,
            "byteLength" : 767733,
            "byteOffset" : 9984
        },
        {
            "buffer" : 0,
            "byteLength" : 76704,
            "byteOffset" : 777720
        },
        {
            "buffer" : 0,
            "byteLength" : 76704,
            "byteOffset" : 854424
        },
        {
            "buffer" : 0,
            "byteLength" : 51136,
            "byteOffset" : 931128
        },
        {
            "buffer" : 0,
            "byteLength" : 35076,
            "byteOffset" : 982264
        },
        {
            "buffer" : 0,
            "byteLength" : 9756,
            "byteOffset" : 1017340
        },
        {
            "buffer" : 0,
            "byteLength" : 9756,
            "byteOffset" : 1027096
        },
        {
            "buffer" : 0,
            "byteLength" : 6504,
            "byteOffset" : 1036852
        },
        {
            "buffer" : 0,
            "byteLength" : 6000,
            "byteOffset" : 1043356
        },
        {
            "buffer" : 0,
            "byteLength" : 768,
            "byteOffset" : 1049356
        },
        {
            "buffer" : 0,
            "byteLength" : 768,
            "byteOffset" : 1050124
        },
        {
            "buffer" : 0,
            "byteLength" : 512,
            "byteOffset" : 1050892
        },
        {
            "buffer" : 0,
            "byteLength" : 288,
            "byteOffset" : 1051404
        },
        {
            "buffer" : 0,
            "byteLength" : 106272,
            "byteOffset" : 1051692
        },
        {
            "buffer" : 0,
            "byteLength" : 106272,
            "byteOffset" : 1157964
        },
        {
            "buffer" : 0,
            "byteLength" : 70848,
            "byteOffset" : 1264236
        },
        {
            "buffer" : 0,
            "byteLength" : 67278,
            "byteOffset" : 1335084
        },
        {
            "buffer" : 0,
            "byteLength" : 11268,
            "byteOffset" : 1402364
        },
        {
            "buffer" : 0,
            "byteLength" : 11268,
            "byteOffset" : 1413632
        },
        {
            "buffer" : 0,
            "byteLength" : 7512,
            "byteOffset" : 1424900
        },
        {
            "buffer" : 0,
            "byteLength" : 5814,
            "byteOffset" : 1432412
        },
        {
            "buffer" : 0,
            "byteLength" : 216,
            "byteOffset" : 1438228
        },
        {
            "buffer" : 0,
            "byteLength" : 216,
            "byteOffset" : 1438444
        },
        {
            "buffer" : 0,
            "byteLength" : 144,
            "byteOffset" : 1438660
        },
        {
            "buffer" : 0,
            "byteLength" : 96,
            "byteOffset" : 1438804
        },
        {
            "buffer" : 0,
            "byteLength" : 42348,
            "byteOffset" : 1438900
        },
        {
            "buffer" : 0,
            "byteLength" : 42348,
            "byteOffset" : 1481248
        },
        {
            "buffer" : 0,
            "byteLength" : 28232,
            "byteOffset" : 1523596
        },
        {
            "buffer" : 0,
            "byteLength" : 31518,
            "byteOffset" : 1551828
        }
    ],
    "buffers" : [
        {
            "byteLength" : 1583348,
            "uri" : "data:application/octet-stream;base64,"
        }
    ]
}
