{
    "asset" : {
        "generator" : "Khronos glTF Blender I/O v1.1.46",
        "version" : "2.0"
    },
    "scene" : 0,
    "scenes" : [
        {
            "name" : "Scene",
            "nodes" : [
                1,
                2
            ]
        }
    ],
    "nodes" : [
        {
            "mesh" : 0,
            "name" : "polySurface3"
        },
        {
            "children" : [
                0
            ],
            "name" : "polySurface1",
            "rotation" : [
                0.7071068286895752,
                0,
                0,
                0.7071067094802856
            ],
            "scale" : [
                0.009999999776482582,
                0.009999999776482582,
                0.009999999776482582
            ]
        },
        {
            "mesh" : 1,
            "name" : "Shape1",
            "rotation" : [
                0.707034707069397,
                -0.024750327691435814,
                -0.010095850564539433,
                0.7066735029220581
            ],
            "scale" : [
                0.005129783879965544,
                0.005129783879965544,
                0.0051297834143042564
            ],
            "translation" : [
                0.0004820138856302947,
                0.0018589887768030167,
                0.012199999764561653
            ]
        }
    ],
    "materials" : [
        {
            "doubleSided" : true,
            "emissiveFactor" : [
                0,
                0,
                0
            ],
            "name" : "Steel.001",
            "pbrMetallicRoughness" : {
                "baseColorFactor" : [
                    0.7454041242599487,
                    0.7681514024734497,
                    0.7681513428688049,
                    1
                ],
                "metallicFactor" : 1,
                "roughnessFactor" : 0.1639999896287918
            }
        },
        {
            "doubleSided" : true,
            "emissiveFactor" : [
                0,
                0,
                0
            ],
            "name" : "Black",
            "pbrMetallicRoughness" : {
                "baseColorFactor" : [
                    0.010021816939115524,
                    0.010021816939115524,
                    0.010021816939115524,
                    1
                ],
                "metallicFactor" : 0.5,
                "roughnessFactor" : 0.5
            }
        },
        {
            "doubleSided" : true,
            "emissiveFactor" : [
                0,
                0,
                0
            ],
            "name" : "Steel.002",
            "pbrMetallicRoughness" : {
                "baseColorFactor" : [
                    0.1848193109035492,
                    0.19017818570137024,
                    0.19017818570137024,
                    1
                ],
                "metallicFactor" : 1,
                "roughnessFactor" : 0.1639999896287918
            }
        }
    ],
    "meshes" : [
        {
            "name" : "Mesh",
            "primitives" : [
                {
                    "attributes" : {
                        "POSITION" : 0,
                        "NORMAL" : 1,
                        "TEXCOORD_0" : 2
                    },
                    "indices" : 3,
                    "material" : 0
                },
                {
                    "attributes" : {
                        "POSITION" : 4,
                        "NORMAL" : 5,
                        "TEXCOORD_0" : 6
                    },
                    "indices" : 7,
                    "material" : 1
                },
                {
                    "attributes" : {
                        "POSITION" : 8,
                        "NORMAL" : 9,
                        "TEXCOORD_0" : 10
                    },
                    "indices" : 11,
                    "material" : 0
                },
                {
                    "attributes" : {
                        "POSITION" : 12,
                        "NORMAL" : 13,
                        "TEXCOORD_0" : 14
                    },
                    "indices" : 15,
                    "material" : 1
                },
                {
                    "attributes" : {
                        "POSITION" : 16,
                        "NORMAL" : 17,
                        "TEXCOORD_0" : 18
                    },
                    "indices" : 19,
                    "material" : 0
                },
                {
                    "attributes" : {
                        "POSITION" : 20,
                        "NORMAL" : 21,
                        "TEXCOORD_0" : 22
                    },
                    "indices" : 23,
                    "material" : 0
                }
            ]
        },
        {
            "name" : "Mesh.002",
            "primitives" : [
                {
                    "attributes" : {
                        "POSITION" : 24,
                        "NORMAL" : 25
                    },
                    "indices" : 26,
                    "material" : 2
                }
            ]
        }
    ],
    "accessors" : [
        {
            "bufferView" : 0,
            "componentType" : 5126,
            "count" : 94,
            "max" : [
                1.1998167037963867,
                1.1932438611984253,
                1.5410999059677124
            ],
            "min" : [
                -1.1998167037963867,
                -1.1932438611984253,
                -1.3189001083374023
            ],
            "type" : "VEC3"
        },
        {
            "bufferView" : 1,
            "componentType" : 5126,
            "count" : 94,
            "type" : "VEC3"
        },
        {
            "bufferView" : 2,
            "componentType" : 5126,
            "count" : 94,
            "type" : "VEC2"
        },
        {
            "bufferView" : 3,
            "componentType" : 5123,
            "count" : 270,
            "type" : "SCALAR"
        },
        {
            "bufferView" : 4,
            "componentType" : 5126,
            "count" : 7560,
            "max" : [
                1.100000023841858,
                1.100000023841858,
                -0.9265097975730896
            ],
            "min" : [
                -1.1199979782104492,
                -1.100000023841858,
                -3.218899965286255
            ],
            "type" : "VEC3"
        },
        {
            "bufferView" : 5,
            "componentType" : 5126,
            "count" : 7560,
            "type" : "VEC3"
        },
        {
            "bufferView" : 6,
            "componentType" : 5126,
            "count" : 7560,
            "type" : "VEC2"
        },
        {
            "bufferView" : 7,
            "componentType" : 5123,
            "count" : 27348,
            "type" : "SCALAR"
        },
        {
            "bufferView" : 8,
            "componentType" : 5126,
            "count" : 132,
            "max" : [
                0.03999999910593033,
                0.2499999701976776,
                -1.4688998460769653
            ],
            "min" : [
                -0.41499999165534973,
                -0.2499999701976776,
                -2.1689000129699707
            ],
            "type" : "VEC3"
        },
        {
            "bufferView" : 9,
            "componentType" : 5126,
            "count" : 132,
            "type" : "VEC3"
        },
        {
            "bufferView" : 10,
            "componentType" : 5126,
            "count" : 132,
            "type" : "VEC2"
        },
        {
            "bufferView" : 11,
            "componentType" : 5123,
            "count" : 234,
            "type" : "SCALAR"
        },
        {
            "bufferView" : 12,
            "componentType" : 5126,
            "count" : 371,
            "max" : [
                0.8020635843276978,
                0.8020635843276978,
                1.6594287157058716
            ],
            "min" : [
                -0.8020635843276978,
                -0.8020635843276978,
                1.441099762916565
            ],
            "type" : "VEC3"
        },
        {
            "bufferView" : 13,
            "componentType" : 5126,
            "count" : 371,
            "type" : "VEC3"
        },
        {
            "bufferView" : 14,
            "componentType" : 5126,
            "count" : 371,
            "type" : "VEC2"
        },
        {
            "bufferView" : 15,
            "componentType" : 5123,
            "count" : 2004,
            "type" : "SCALAR"
        },
        {
            "bufferView" : 16,
            "componentType" : 5126,
            "count" : 5069,
            "max" : [
                1.3499997854232788,
                1.4740276336669922,
                2.541100025177002
            ],
            "min" : [
                -1.3499997854232788,
                -1.4740276336669922,
                -0.9265097975730896
            ],
            "type" : "VEC3"
        },
        {
            "bufferView" : 17,
            "componentType" : 5126,
            "count" : 5069,
            "type" : "VEC3"
        },
        {
            "bufferView" : 18,
            "componentType" : 5126,
            "count" : 5069,
            "type" : "VEC2"
        },
        {
            "bufferView" : 19,
            "componentType" : 5123,
            "count" : 20733,
            "type" : "SCALAR"
        },
        {
            "bufferView" : 20,
            "componentType" : 5126,
            "count" : 505,
            "max" : [
                1.328292965888977,
                1.3299998044967651,
                0.6910999417304993
            ],
            "min" : [
                -1.328292965888977,
                -1.3231762647628784,
                -0.8439000844955444
            ],
            "type" : "VEC3"
        },
        {
            "bufferView" : 21,
            "componentType" : 5126,
            "count" : 505,
            "type" : "VEC3"
        },
        {
            "bufferView" : 22,
            "componentType" : 5126,
            "count" : 505,
            "type" : "VEC2"
        },
        {
            "bufferView" : 23,
            "componentType" : 5123,
            "count" : 1845,
            "type" : "SCALAR"
        },
        {
            "bufferView" : 24,
            "componentType" : 5126,
            "count" : 4020,
            "max" : [
                1.0922093391418457,
                0.12962591648101807,
                0.5021603107452393
            ],
            "min" : [
                -1.4114573001861572,
                -0.26107174158096313,
                -0.5351827144622803
            ],
            "type" : "VEC3"
        },
        {
            "bufferView" : 25,
            "componentType" : 5126,
            "count" : 4020,
            "type" : "VEC3"
        },
        {
            "bufferView" : 26,
            "componentType" : 5123,
            "count" : 11988,
            "type" : "SCALAR"
        }
    ],
    "bufferViews" : [
        {
            "buffer" : 0,
            "byteLength" : 1128,
            "byteOffset" : 0
        },
        {
            "buffer" : 0,
            "byteLength" : 1128,
            "byteOffset" : 1128
        },
        {
            "buffer" : 0,
            "byteLength" : 752,
            "byteOffset" : 2256
        },
        {
            "buffer" : 0,
            "byteLength" : 540,
            "byteOffset" : 3008
        },
        {
            "buffer" : 0,
            "byteLength" : 90720,
            "byteOffset" : 3548
        },
        {
            "buffer" : 0,
            "byteLength" : 90720,
            "byteOffset" : 94268
        },
        {
            "buffer" : 0,
            "byteLength" : 60480,
            "byteOffset" : 184988
        },
        {
            "buffer" : 0,
            "byteLength" : 54696,
            "byteOffset" : 245468
        },
        {
            "buffer" : 0,
            "byteLength" : 1584,
            "byteOffset" : 300164
        },
        {
            "buffer" : 0,
            "byteLength" : 1584,
            "byteOffset" : 301748
        },
        {
            "buffer" : 0,
            "byteLength" : 1056,
            "byteOffset" : 303332
        },
        {
            "buffer" : 0,
            "byteLength" : 468,
            "byteOffset" : 304388
        },
        {
            "buffer" : 0,
            "byteLength" : 4452,
            "byteOffset" : 304856
        },
        {
            "buffer" : 0,
            "byteLength" : 4452,
            "byteOffset" : 309308
        },
        {
            "buffer" : 0,
            "byteLength" : 2968,
            "byteOffset" : 313760
        },
        {
            "buffer" : 0,
            "byteLength" : 4008,
            "byteOffset" : 316728
        },
        {
            "buffer" : 0,
            "byteLength" : 60828,
            "byteOffset" : 320736
        },
        {
            "buffer" : 0,
            "byteLength" : 60828,
            "byteOffset" : 381564
        },
        {
            "buffer" : 0,
            "byteLength" : 40552,
            "byteOffset" : 442392
        },
        {
            "buffer" : 0,
            "byteLength" : 41466,
            "byteOffset" : 482944
        },
        {
            "buffer" : 0,
            "byteLength" : 6060,
            "byteOffset" : 524412
        },
        {
            "buffer" : 0,
            "byteLength" : 6060,
            "byteOffset" : 530472
        },
        {
            "buffer" : 0,
            "byteLength" : 4040,
            "byteOffset" : 536532
        },
        {
            "buffer" : 0,
            "byteLength" : 3690,
            "byteOffset" : 540572
        },
        {
            "buffer" : 0,
            "byteLength" : 48240,
            "byteOffset" : 544264
        },
        {
            "buffer" : 0,
            "byteLength" : 48240,
            "byteOffset" : 592504
        },
        {
            "buffer" : 0,
            "byteLength" : 23976,
            "byteOffset" : 640744
        }
    ],
    "buffers" : [
        {
            "byteLength" : 664720,
            "uri" : "data:application/octet-stream;base64,"
        }
    ]
}
