{
    "asset" : {
        "generator" : "Khronos glTF Blender I/O v1.1.46",
        "version" : "2.0"
    },
    "scene" : 0,
    "scenes" : [
        {
            "name" : "Scene",
            "nodes" : [
                0,
                1
            ]
        }
    ],
    "nodes" : [
        {
            "mesh" : 0,
            "name" : "polySurface2",
            "rotation" : [
                0.7071068286895752,
                0,
                0,
                0.7071067094802856
            ],
            "scale" : [
                0.10000000149011612,
                0.10000000149011612,
                0.10000000149011612
            ]
        },
        {
            "mesh" : 1,
            "name" : "Shape1",
            "rotation" : [
                0.1882081925868988,
                0.6871421337127686,
                -0.6741408705711365,
                0.1948009729385376
            ],
            "scale" : [
                0.053582750260829926,
                0.053582750260829926,
                0.053582753986120224
            ],
            "translation" : [
                0.05643104016780853,
                0.04955577477812767,
                -0.10688135027885437
            ]
        }
    ],
    "materials" : [
        {
            "doubleSided" : true,
            "emissiveFactor" : [
                0,
                0,
                0
            ],
            "name" : "Black",
            "pbrMetallicRoughness" : {
                "baseColorFactor" : [
                    0,
                    0,
                    0,
                    1
                ],
                "metallicFactor" : 0.5,
                "roughnessFactor" : 0.5
            }
        },
        {
            "doubleSided" : true,
            "emissiveFactor" : [
                0,
                0,
                0
            ],
            "name" : "Steel.001",
            "pbrMetallicRoughness" : {
                "baseColorFactor" : [
                    0.7454041242599487,
                    0.7681514024734497,
                    0.7681513428688049,
                    1
                ],
                "metallicFactor" : 1,
                "roughnessFactor" : 0.1639999896287918
            }
        },
        {
            "doubleSided" : true,
            "emissiveFactor" : [
                0,
                0,
                0
            ],
            "name" : "Steel.002",
            "pbrMetallicRoughness" : {
                "baseColorFactor" : [
                    0.22006820142269135,
                    0.22658386826515198,
                    0.22658386826515198,
                    1
                ],
                "metallicFactor" : 1,
                "roughnessFactor" : 0.1639999896287918
            }
        }
    ],
    "meshes" : [
        {
            "name" : "Mesh.004",
            "primitives" : [
                {
                    "attributes" : {
                        "POSITION" : 0,
                        "NORMAL" : 1,
                        "TEXCOORD_0" : 2
                    },
                    "indices" : 3,
                    "material" : 0
                },
                {
                    "attributes" : {
                        "POSITION" : 4,
                        "NORMAL" : 5,
                        "TEXCOORD_0" : 6
                    },
                    "indices" : 7,
                    "material" : 1
                },
                {
                    "attributes" : {
                        "POSITION" : 8,
                        "NORMAL" : 9,
                        "TEXCOORD_0" : 10
                    },
                    "indices" : 11,
                    "material" : 1
                },
                {
                    "attributes" : {
                        "POSITION" : 12,
                        "NORMAL" : 13,
                        "TEXCOORD_0" : 14
                    },
                    "indices" : 15,
                    "material" : 1
                },
                {
                    "attributes" : {
                        "POSITION" : 16,
                        "NORMAL" : 17,
                        "TEXCOORD_0" : 18
                    },
                    "indices" : 19,
                    "material" : 0
                },
                {
                    "attributes" : {
                        "POSITION" : 20,
                        "NORMAL" : 21,
                        "TEXCOORD_0" : 22
                    },
                    "indices" : 23,
                    "material" : 1
                },
                {
                    "attributes" : {
                        "POSITION" : 24,
                        "NORMAL" : 25,
                        "TEXCOORD_0" : 26
                    },
                    "indices" : 27,
                    "material" : 1
                }
            ]
        },
        {
            "name" : "Mesh.001",
            "primitives" : [
                {
                    "attributes" : {
                        "POSITION" : 28,
                        "NORMAL" : 29
                    },
                    "indices" : 30,
                    "material" : 2
                }
            ]
        }
    ],
    "accessors" : [
        {
            "bufferView" : 0,
            "componentType" : 5126,
            "count" : 6,
            "max" : [
                0.39312005043029785,
                -0.42472976446151733,
                2.1482322216033936
            ],
            "min" : [
                0.17811955511569977,
                -0.566189706325531,
                -2.1175637245178223
            ],
            "type" : "VEC3"
        },
        {
            "bufferView" : 1,
            "componentType" : 5126,
            "count" : 6,
            "type" : "VEC3"
        },
        {
            "bufferView" : 2,
            "componentType" : 5126,
            "count" : 6,
            "type" : "VEC2"
        },
        {
            "bufferView" : 3,
            "componentType" : 5123,
            "count" : 6,
            "type" : "SCALAR"
        },
        {
            "bufferView" : 4,
            "componentType" : 5126,
            "count" : 521,
            "max" : [
                1.1998168230056763,
                1.1998167037963867,
                1.2256466150283813
            ],
            "min" : [
                -1.1998168230056763,
                -1.1998169422149658,
                -1.2919633388519287
            ],
            "type" : "VEC3"
        },
        {
            "bufferView" : 5,
            "componentType" : 5126,
            "count" : 521,
            "type" : "VEC3"
        },
        {
            "bufferView" : 6,
            "componentType" : 5126,
            "count" : 521,
            "type" : "VEC2"
        },
        {
            "bufferView" : 7,
            "componentType" : 5123,
            "count" : 1509,
            "type" : "SCALAR"
        },
        {
            "bufferView" : 8,
            "componentType" : 5126,
            "count" : 5107,
            "max" : [
                1.4740275144577026,
                1.3499999046325684,
                2.225646495819092
            ],
            "min" : [
                -1.4740276336669922,
                -1.350000023841858,
                -1.2919633388519287
            ],
            "type" : "VEC3"
        },
        {
            "bufferView" : 9,
            "componentType" : 5126,
            "count" : 5107,
            "type" : "VEC3"
        },
        {
            "bufferView" : 10,
            "componentType" : 5126,
            "count" : 5107,
            "type" : "VEC2"
        },
        {
            "bufferView" : 11,
            "componentType" : 5123,
            "count" : 20871,
            "type" : "SCALAR"
        },
        {
            "bufferView" : 12,
            "componentType" : 5126,
            "count" : 200,
            "max" : [
                0.8204635977745056,
                0.8248956799507141,
                1.055646538734436
            ],
            "min" : [
                -0.8204638957977295,
                -0.8248956203460693,
                0.9094661474227905
            ],
            "type" : "VEC3"
        },
        {
            "bufferView" : 13,
            "componentType" : 5126,
            "count" : 200,
            "type" : "VEC3"
        },
        {
            "bufferView" : 14,
            "componentType" : 5126,
            "count" : 200,
            "type" : "VEC2"
        },
        {
            "bufferView" : 15,
            "componentType" : 5123,
            "count" : 582,
            "type" : "SCALAR"
        },
        {
            "bufferView" : 16,
            "componentType" : 5126,
            "count" : 4944,
            "max" : [
                0.6758652925491333,
                0.6758652329444885,
                -1.2622191905975342
            ],
            "min" : [
                -0.6758651733398438,
                -0.6758652329444885,
                -2.3193533420562744
            ],
            "type" : "VEC3"
        },
        {
            "bufferView" : 17,
            "componentType" : 5126,
            "count" : 4944,
            "type" : "VEC3"
        },
        {
            "bufferView" : 18,
            "componentType" : 5126,
            "count" : 4944,
            "type" : "VEC2"
        },
        {
            "bufferView" : 19,
            "componentType" : 5123,
            "count" : 19710,
            "type" : "SCALAR"
        },
        {
            "bufferView" : 20,
            "componentType" : 5126,
            "count" : 542,
            "max" : [
                1.328493595123291,
                1.3239775896072388,
                0.32564660906791687
            ],
            "min" : [
                -1.3284937143325806,
                -1.3300000429153442,
                -1.2093535661697388
            ],
            "type" : "VEC3"
        },
        {
            "bufferView" : 21,
            "componentType" : 5126,
            "count" : 542,
            "type" : "VEC3"
        },
        {
            "bufferView" : 22,
            "componentType" : 5126,
            "count" : 542,
            "type" : "VEC2"
        },
        {
            "bufferView" : 23,
            "componentType" : 5123,
            "count" : 1980,
            "type" : "SCALAR"
        },
        {
            "bufferView" : 24,
            "componentType" : 5126,
            "count" : 604,
            "max" : [
                0.22677668929100037,
                0.22677668929100037,
                -1.4393539428710938
            ],
            "min" : [
                -0.22677671909332275,
                -0.22677670419216156,
                -2.1393537521362305
            ],
            "type" : "VEC3"
        },
        {
            "bufferView" : 25,
            "componentType" : 5126,
            "count" : 604,
            "type" : "VEC3"
        },
        {
            "bufferView" : 26,
            "componentType" : 5126,
            "count" : 604,
            "type" : "VEC2"
        },
        {
            "bufferView" : 27,
            "componentType" : 5123,
            "count" : 2376,
            "type" : "SCALAR"
        },
        {
            "bufferView" : 28,
            "componentType" : 5126,
            "count" : 4020,
            "max" : [
                1.0922093391418457,
                0.12962591648101807,
                0.5021603107452393
            ],
            "min" : [
                -1.4114573001861572,
                -0.26107174158096313,
                -0.5351827144622803
            ],
            "type" : "VEC3"
        },
        {
            "bufferView" : 29,
            "componentType" : 5126,
            "count" : 4020,
            "type" : "VEC3"
        },
        {
            "bufferView" : 30,
            "componentType" : 5123,
            "count" : 11988,
            "type" : "SCALAR"
        }
    ],
    "bufferViews" : [
        {
            "buffer" : 0,
            "byteLength" : 72,
            "byteOffset" : 0
        },
        {
            "buffer" : 0,
            "byteLength" : 72,
            "byteOffset" : 72
        },
        {
            "buffer" : 0,
            "byteLength" : 48,
            "byteOffset" : 144
        },
        {
            "buffer" : 0,
            "byteLength" : 12,
            "byteOffset" : 192
        },
        {
            "buffer" : 0,
            "byteLength" : 6252,
            "byteOffset" : 204
        },
        {
            "buffer" : 0,
            "byteLength" : 6252,
            "byteOffset" : 6456
        },
        {
            "buffer" : 0,
            "byteLength" : 4168,
            "byteOffset" : 12708
        },
        {
            "buffer" : 0,
            "byteLength" : 3018,
            "byteOffset" : 16876
        },
        {
            "buffer" : 0,
            "byteLength" : 61284,
            "byteOffset" : 19896
        },
        {
            "buffer" : 0,
            "byteLength" : 61284,
            "byteOffset" : 81180
        },
        {
            "buffer" : 0,
            "byteLength" : 40856,
            "byteOffset" : 142464
        },
        {
            "buffer" : 0,
            "byteLength" : 41742,
            "byteOffset" : 183320
        },
        {
            "buffer" : 0,
            "byteLength" : 2400,
            "byteOffset" : 225064
        },
        {
            "buffer" : 0,
            "byteLength" : 2400,
            "byteOffset" : 227464
        },
        {
            "buffer" : 0,
            "byteLength" : 1600,
            "byteOffset" : 229864
        },
        {
            "buffer" : 0,
            "byteLength" : 1164,
            "byteOffset" : 231464
        },
        {
            "buffer" : 0,
            "byteLength" : 59328,
            "byteOffset" : 232628
        },
        {
            "buffer" : 0,
            "byteLength" : 59328,
            "byteOffset" : 291956
        },
        {
            "buffer" : 0,
            "byteLength" : 39552,
            "byteOffset" : 351284
        },
        {
            "buffer" : 0,
            "byteLength" : 39420,
            "byteOffset" : 390836
        },
        {
            "buffer" : 0,
            "byteLength" : 6504,
            "byteOffset" : 430256
        },
        {
            "buffer" : 0,
            "byteLength" : 6504,
            "byteOffset" : 436760
        },
        {
            "buffer" : 0,
            "byteLength" : 4336,
            "byteOffset" : 443264
        },
        {
            "buffer" : 0,
            "byteLength" : 3960,
            "byteOffset" : 447600
        },
        {
            "buffer" : 0,
            "byteLength" : 7248,
            "byteOffset" : 451560
        },
        {
            "buffer" : 0,
            "byteLength" : 7248,
            "byteOffset" : 458808
        },
        {
            "buffer" : 0,
            "byteLength" : 4832,
            "byteOffset" : 466056
        },
        {
            "buffer" : 0,
            "byteLength" : 4752,
            "byteOffset" : 470888
        },
        {
            "buffer" : 0,
            "byteLength" : 48240,
            "byteOffset" : 475640
        },
        {
            "buffer" : 0,
            "byteLength" : 48240,
            "byteOffset" : 523880
        },
        {
            "buffer" : 0,
            "byteLength" : 23976,
            "byteOffset" : 572120
        }
    ],
    "buffers" : [
        {
            "byteLength" : 596096,
            "uri" : "data:application/octet-stream;base64,"
        }
    ]
}
