{
    "asset" : {
        "generator" : "Khronos glTF Blender I/O v1.1.46",
        "version" : "2.0"
    },
    "scene" : 0,
    "scenes" : [
        {
            "name" : "Scene",
            "nodes" : [
                1,
                2,
                3
            ]
        }
    ],
    "nodes" : [
        {
            "name" : "WEB063G1156",
            "translation" : [
                0.019212663173675537,
                0,
                -0.4017125964164734
            ]
        },
        {
            "children" : [
                0
            ],
            "name" : "DST P600_WEB063G1156.IPT",
            "rotation" : [
                0.4999999701976776,
                0.5,
                -0.5000001192092896,
                0.49999988079071045
            ],
            "scale" : [
                0.25333279371261597,
                0.25333279371261597,
                0.25333279371261597
            ],
            "translation" : [
                0,
                0.0558113269507885,
                -0.003407407319173217
            ]
        },
        {
            "mesh" : 0,
            "name" : "polySurface2",
            "rotation" : [
                0.7071068286895752,
                0,
                0,
                0.7071067094802856
            ],
            "scale" : [
                0.09973735362291336,
                0.09973735362291336,
                0.09973735362291336
            ],
            "translation" : [
                0,
                -0.04595566540956497,
                0.0014597910922020674
            ]
        },
        {
            "mesh" : 1,
            "name" : "Engraved",
            "rotation" : [
                0.4042227864265442,
                0.5801757574081421,
                -0.5801758170127869,
                0.4042227268218994
            ],
            "scale" : [
                0.25333285331726074,
                0.25333285331726074,
                0.2540646493434906
            ],
            "translation" : [
                0,
                0.00591904204338789,
                0.0014595948159694672
            ]
        }
    ],
    "materials" : [
        {
            "doubleSided" : true,
            "emissiveFactor" : [
                0,
                0,
                0
            ],
            "name" : "phong1",
            "pbrMetallicRoughness" : {
                "baseColorFactor" : [
                    0.7529411911964417,
                    0.7529411911964417,
                    0.7529411911964417,
                    1
                ],
                "metallicFactor" : 0.5,
                "roughnessFactor" : 0.8999999761581421
            }
        },
        {
            "doubleSided" : true,
            "emissiveFactor" : [
                0,
                0,
                0
            ],
            "name" : "Steel.001",
            "pbrMetallicRoughness" : {
                "baseColorFactor" : [
                    0.7454041242599487,
                    0.7681514024734497,
                    0.7681513428688049,
                    1
                ],
                "metallicFactor" : 1,
                "roughnessFactor" : 0.1639999896287918
            }
        },
        {
            "doubleSided" : true,
            "emissiveFactor" : [
                0,
                0,
                0
            ],
            "name" : "Black",
            "pbrMetallicRoughness" : {
                "baseColorFactor" : [
                    0,
                    0,
                    0,
                    1
                ],
                "metallicFactor" : 0.5,
                "roughnessFactor" : 0.5
            }
        },
        {
            "doubleSided" : true,
            "emissiveFactor" : [
                0,
                0,
                0
            ],
            "name" : "phong9",
            "pbrMetallicRoughness" : {
                "baseColorFactor" : [
                    0.03741005063056946,
                    0.03741005063056946,
                    0.03741005063056946,
                    1
                ],
                "metallicFactor" : 0.5,
                "roughnessFactor" : 0.5
            }
        }
    ],
    "meshes" : [
        {
            "name" : "Mesh",
            "primitives" : [
                {
                    "attributes" : {
                        "POSITION" : 0,
                        "NORMAL" : 1,
                        "TEXCOORD_0" : 2
                    },
                    "indices" : 3,
                    "material" : 0
                },
                {
                    "attributes" : {
                        "POSITION" : 4,
                        "NORMAL" : 5,
                        "TEXCOORD_0" : 6
                    },
                    "indices" : 7,
                    "material" : 1
                },
                {
                    "attributes" : {
                        "POSITION" : 8,
                        "NORMAL" : 9,
                        "TEXCOORD_0" : 10
                    },
                    "indices" : 11,
                    "material" : 1
                },
                {
                    "attributes" : {
                        "POSITION" : 12,
                        "NORMAL" : 13,
                        "TEXCOORD_0" : 14
                    },
                    "indices" : 15,
                    "material" : 1
                },
                {
                    "attributes" : {
                        "POSITION" : 16,
                        "NORMAL" : 17,
                        "TEXCOORD_0" : 18
                    },
                    "indices" : 19,
                    "material" : 2
                },
                {
                    "attributes" : {
                        "POSITION" : 20,
                        "NORMAL" : 21,
                        "TEXCOORD_0" : 22
                    },
                    "indices" : 23,
                    "material" : 1
                },
                {
                    "attributes" : {
                        "POSITION" : 24,
                        "NORMAL" : 25,
                        "TEXCOORD_0" : 26
                    },
                    "indices" : 27,
                    "material" : 1
                }
            ]
        },
        {
            "name" : "Mesh.001",
            "primitives" : [
                {
                    "attributes" : {
                        "POSITION" : 28,
                        "NORMAL" : 29,
                        "TEXCOORD_0" : 30
                    },
                    "indices" : 31,
                    "material" : 1
                },
                {
                    "attributes" : {
                        "POSITION" : 32,
                        "NORMAL" : 33,
                        "TEXCOORD_0" : 34
                    },
                    "indices" : 35,
                    "material" : 3
                }
            ]
        }
    ],
    "accessors" : [
        {
            "bufferView" : 0,
            "componentType" : 5126,
            "count" : 6,
            "max" : [
                0.39312005043029785,
                -0.42472976446151733,
                2.1482322216033936
            ],
            "min" : [
                0.17811955511569977,
                -0.566189706325531,
                -2.1175637245178223
            ],
            "type" : "VEC3"
        },
        {
            "bufferView" : 1,
            "componentType" : 5126,
            "count" : 6,
            "type" : "VEC3"
        },
        {
            "bufferView" : 2,
            "componentType" : 5126,
            "count" : 6,
            "type" : "VEC2"
        },
        {
            "bufferView" : 3,
            "componentType" : 5123,
            "count" : 6,
            "type" : "SCALAR"
        },
        {
            "bufferView" : 4,
            "componentType" : 5126,
            "count" : 521,
            "max" : [
                1.1998168230056763,
                1.1998167037963867,
                1.2256466150283813
            ],
            "min" : [
                -1.1998168230056763,
                -1.1998169422149658,
                -1.2919633388519287
            ],
            "type" : "VEC3"
        },
        {
            "bufferView" : 5,
            "componentType" : 5126,
            "count" : 521,
            "type" : "VEC3"
        },
        {
            "bufferView" : 6,
            "componentType" : 5126,
            "count" : 521,
            "type" : "VEC2"
        },
        {
            "bufferView" : 7,
            "componentType" : 5123,
            "count" : 1509,
            "type" : "SCALAR"
        },
        {
            "bufferView" : 8,
            "componentType" : 5126,
            "count" : 5107,
            "max" : [
                1.4740275144577026,
                1.3499999046325684,
                2.225646495819092
            ],
            "min" : [
                -1.4740276336669922,
                -1.350000023841858,
                -1.2919633388519287
            ],
            "type" : "VEC3"
        },
        {
            "bufferView" : 9,
            "componentType" : 5126,
            "count" : 5107,
            "type" : "VEC3"
        },
        {
            "bufferView" : 10,
            "componentType" : 5126,
            "count" : 5107,
            "type" : "VEC2"
        },
        {
            "bufferView" : 11,
            "componentType" : 5123,
            "count" : 20871,
            "type" : "SCALAR"
        },
        {
            "bufferView" : 12,
            "componentType" : 5126,
            "count" : 200,
            "max" : [
                0.8204635977745056,
                0.8248956799507141,
                1.055646538734436
            ],
            "min" : [
                -0.8204638957977295,
                -0.8248956203460693,
                0.9094661474227905
            ],
            "type" : "VEC3"
        },
        {
            "bufferView" : 13,
            "componentType" : 5126,
            "count" : 200,
            "type" : "VEC3"
        },
        {
            "bufferView" : 14,
            "componentType" : 5126,
            "count" : 200,
            "type" : "VEC2"
        },
        {
            "bufferView" : 15,
            "componentType" : 5123,
            "count" : 582,
            "type" : "SCALAR"
        },
        {
            "bufferView" : 16,
            "componentType" : 5126,
            "count" : 4944,
            "max" : [
                0.6758652925491333,
                0.6758652329444885,
                -1.2622191905975342
            ],
            "min" : [
                -0.6758651733398438,
                -0.6758652329444885,
                -2.3193533420562744
            ],
            "type" : "VEC3"
        },
        {
            "bufferView" : 17,
            "componentType" : 5126,
            "count" : 4944,
            "type" : "VEC3"
        },
        {
            "bufferView" : 18,
            "componentType" : 5126,
            "count" : 4944,
            "type" : "VEC2"
        },
        {
            "bufferView" : 19,
            "componentType" : 5123,
            "count" : 19710,
            "type" : "SCALAR"
        },
        {
            "bufferView" : 20,
            "componentType" : 5126,
            "count" : 474,
            "max" : [
                1.328493595123291,
                1.3239775896072388,
                0.32564660906791687
            ],
            "min" : [
                -1.3284937143325806,
                -1.3300000429153442,
                0.16536635160446167
            ],
            "type" : "VEC3"
        },
        {
            "bufferView" : 21,
            "componentType" : 5126,
            "count" : 474,
            "type" : "VEC3"
        },
        {
            "bufferView" : 22,
            "componentType" : 5126,
            "count" : 474,
            "type" : "VEC2"
        },
        {
            "bufferView" : 23,
            "componentType" : 5123,
            "count" : 1782,
            "type" : "SCALAR"
        },
        {
            "bufferView" : 24,
            "componentType" : 5126,
            "count" : 604,
            "max" : [
                0.22677668929100037,
                0.22677668929100037,
                -1.4393539428710938
            ],
            "min" : [
                -0.22677671909332275,
                -0.22677670419216156,
                -2.1393537521362305
            ],
            "type" : "VEC3"
        },
        {
            "bufferView" : 25,
            "componentType" : 5126,
            "count" : 604,
            "type" : "VEC3"
        },
        {
            "bufferView" : 26,
            "componentType" : 5126,
            "count" : 604,
            "type" : "VEC2"
        },
        {
            "bufferView" : 27,
            "componentType" : 5123,
            "count" : 2376,
            "type" : "SCALAR"
        },
        {
            "bufferView" : 28,
            "componentType" : 5126,
            "count" : 4382,
            "max" : [
                0.5,
                0.5,
                0.2708367705345154
            ],
            "min" : [
                -0.5,
                -0.5,
                -0.2708367705345154
            ],
            "type" : "VEC3"
        },
        {
            "bufferView" : 29,
            "componentType" : 5126,
            "count" : 4382,
            "type" : "VEC3"
        },
        {
            "bufferView" : 30,
            "componentType" : 5126,
            "count" : 4382,
            "type" : "VEC2"
        },
        {
            "bufferView" : 31,
            "componentType" : 5123,
            "count" : 13629,
            "type" : "SCALAR"
        },
        {
            "bufferView" : 32,
            "componentType" : 5126,
            "count" : 2746,
            "max" : [
                0.4429411292076111,
                0.49520745873451233,
                0.11131203919649124
            ],
            "min" : [
                0.033987872302532196,
                0.2187132090330124,
                -0.09193534404039383
            ],
            "type" : "VEC3"
        },
        {
            "bufferView" : 33,
            "componentType" : 5126,
            "count" : 2746,
            "type" : "VEC3"
        },
        {
            "bufferView" : 34,
            "componentType" : 5126,
            "count" : 2746,
            "type" : "VEC2"
        },
        {
            "bufferView" : 35,
            "componentType" : 5123,
            "count" : 5589,
            "type" : "SCALAR"
        }
    ],
    "bufferViews" : [
        {
            "buffer" : 0,
            "byteLength" : 72,
            "byteOffset" : 0
        },
        {
            "buffer" : 0,
            "byteLength" : 72,
            "byteOffset" : 72
        },
        {
            "buffer" : 0,
            "byteLength" : 48,
            "byteOffset" : 144
        },
        {
            "buffer" : 0,
            "byteLength" : 12,
            "byteOffset" : 192
        },
        {
            "buffer" : 0,
            "byteLength" : 6252,
            "byteOffset" : 204
        },
        {
            "buffer" : 0,
            "byteLength" : 6252,
            "byteOffset" : 6456
        },
        {
            "buffer" : 0,
            "byteLength" : 4168,
            "byteOffset" : 12708
        },
        {
            "buffer" : 0,
            "byteLength" : 3018,
            "byteOffset" : 16876
        },
        {
            "buffer" : 0,
            "byteLength" : 61284,
            "byteOffset" : 19896
        },
        {
            "buffer" : 0,
            "byteLength" : 61284,
            "byteOffset" : 81180
        },
        {
            "buffer" : 0,
            "byteLength" : 40856,
            "byteOffset" : 142464
        },
        {
            "buffer" : 0,
            "byteLength" : 41742,
            "byteOffset" : 183320
        },
        {
            "buffer" : 0,
            "byteLength" : 2400,
            "byteOffset" : 225064
        },
        {
            "buffer" : 0,
            "byteLength" : 2400,
            "byteOffset" : 227464
        },
        {
            "buffer" : 0,
            "byteLength" : 1600,
            "byteOffset" : 229864
        },
        {
            "buffer" : 0,
            "byteLength" : 1164,
            "byteOffset" : 231464
        },
        {
            "buffer" : 0,
            "byteLength" : 59328,
            "byteOffset" : 232628
        },
        {
            "buffer" : 0,
            "byteLength" : 59328,
            "byteOffset" : 291956
        },
        {
            "buffer" : 0,
            "byteLength" : 39552,
            "byteOffset" : 351284
        },
        {
            "buffer" : 0,
            "byteLength" : 39420,
            "byteOffset" : 390836
        },
        {
            "buffer" : 0,
            "byteLength" : 5688,
            "byteOffset" : 430256
        },
        {
            "buffer" : 0,
            "byteLength" : 5688,
            "byteOffset" : 435944
        },
        {
            "buffer" : 0,
            "byteLength" : 3792,
            "byteOffset" : 441632
        },
        {
            "buffer" : 0,
            "byteLength" : 3564,
            "byteOffset" : 445424
        },
        {
            "buffer" : 0,
            "byteLength" : 7248,
            "byteOffset" : 448988
        },
        {
            "buffer" : 0,
            "byteLength" : 7248,
            "byteOffset" : 456236
        },
        {
            "buffer" : 0,
            "byteLength" : 4832,
            "byteOffset" : 463484
        },
        {
            "buffer" : 0,
            "byteLength" : 4752,
            "byteOffset" : 468316
        },
        {
            "buffer" : 0,
            "byteLength" : 52584,
            "byteOffset" : 473068
        },
        {
            "buffer" : 0,
            "byteLength" : 52584,
            "byteOffset" : 525652
        },
        {
            "buffer" : 0,
            "byteLength" : 35056,
            "byteOffset" : 578236
        },
        {
            "buffer" : 0,
            "byteLength" : 27258,
            "byteOffset" : 613292
        },
        {
            "buffer" : 0,
            "byteLength" : 32952,
            "byteOffset" : 640552
        },
        {
            "buffer" : 0,
            "byteLength" : 32952,
            "byteOffset" : 673504
        },
        {
            "buffer" : 0,
            "byteLength" : 21968,
            "byteOffset" : 706456
        },
        {
            "buffer" : 0,
            "byteLength" : 11178,
            "byteOffset" : 728424
        }
    ],
    "buffers" : [
        {
            "byteLength" : 739604,
            "uri" : "data:application/octet-stream;base64,"
        }
    ]
}
